<?xml version="1.0" standalone="no"?><svg xmlns="http://www.w3.org/2000/svg" viewBox="0 0 1440 320"><path fill="#0081fe" fill-opacity="1" d="M0,64L30,74.7C60,85,120,107,180,144C240,181,300,235,360,213.3C420,192,480,96,540,90.7C600,85,660,171,720,197.3C780,224,840,192,900,192C960,192,1020,224,1080,218.7C1140,213,1200,171,1260,149.3C1320,128,1380,128,1410,128L1440,128L1440,320L1410,320C1380,320,1320,320,1260,320C1200,320,1140,320,1080,320C1020,320,960,320,900,320C840,320,780,320,720,320C660,320,600,320,540,320C480,320,420,320,360,320C300,320,240,320,180,320C120,320,60,320,30,320L0,320Z"></path></svg>